<svg width="141" height="20" viewBox="0 0 141 20" fill="none" xmlns="http://www.w3.org/2000/svg">
<path d="M4.99116 9.48C4.61516 9.664 4.20316 9.808 3.75516 9.912C4.20316 10.016 4.61516 10.16 4.99116 10.344L9.34716 12.588C9.53116 12.676 9.66316 12.788 9.74316 12.924C9.82316 13.06 9.86316 13.208 9.86316 13.368V15.48L0.347156 10.512V9.312L9.86316 4.356V6.468C9.86316 6.628 9.82316 6.776 9.74316 6.912C9.66316 7.04 9.53116 7.152 9.34716 7.248L4.99116 9.48ZM120.891 18.036C120.755 18.404 120.535 18.68 120.231 18.864C119.935 19.048 119.631 19.14 119.319 19.14H118.059L125.067 1.212C125.195 0.875999 125.391 0.619999 125.655 0.443999C125.919 0.259999 126.227 0.167999 126.579 0.167999H127.851L120.891 18.036ZM140.651 9.312V10.512L131.135 15.48V13.368C131.135 13.208 131.175 13.06 131.255 12.924C131.335 12.788 131.467 12.676 131.651 12.588L136.007 10.344C136.383 10.16 136.795 10.016 137.243 9.912C136.795 9.808 136.383 9.664 136.007 9.48L131.651 7.248C131.467 7.152 131.335 7.04 131.255 6.912C131.175 6.776 131.135 6.628 131.135 6.468V4.356L140.651 9.312Z" fill="#4F46E5"/>
<path d="M17.629 18H14.389V0.647999H17.629V18ZM31.8882 5.688L27.0042 18H24.3162L19.4322 5.688H21.8802C22.1042 5.688 22.2882 5.74 22.4322 5.844C22.5842 5.948 22.6842 6.08 22.7322 6.24L25.1082 12.816C25.2362 13.2 25.3482 13.576 25.4442 13.944C25.5402 14.312 25.6242 14.68 25.6962 15.048C25.7762 14.68 25.8642 14.312 25.9602 13.944C26.0562 13.576 26.1722 13.2 26.3082 12.816L28.7322 6.24C28.7882 6.08 28.8882 5.948 29.0322 5.844C29.1762 5.74 29.3482 5.688 29.5482 5.688H31.8882ZM39.6672 12.744C38.8112 12.784 38.0912 12.86 37.5072 12.972C36.9232 13.076 36.4552 13.212 36.1032 13.38C35.7512 13.548 35.4992 13.744 35.3472 13.968C35.1952 14.192 35.1192 14.436 35.1192 14.7C35.1192 15.22 35.2712 15.592 35.5752 15.816C35.8872 16.04 36.2912 16.152 36.7872 16.152C37.3952 16.152 37.9192 16.044 38.3592 15.828C38.8072 15.604 39.2432 15.268 39.6672 14.82V12.744ZM32.8752 7.404C34.2912 6.108 35.9952 5.46 37.9872 5.46C38.7072 5.46 39.3512 5.58 39.9192 5.82C40.4872 6.052 40.9672 6.38 41.3592 6.804C41.7512 7.22 42.0472 7.72 42.2472 8.304C42.4552 8.888 42.5592 9.528 42.5592 10.224V18H41.2152C40.9352 18 40.7192 17.96 40.5672 17.88C40.4152 17.792 40.2952 17.62 40.2072 17.364L39.9432 16.476C39.6312 16.756 39.3272 17.004 39.0312 17.22C38.7352 17.428 38.4272 17.604 38.1072 17.748C37.7872 17.892 37.4432 18 37.0752 18.072C36.7152 18.152 36.3152 18.192 35.8752 18.192C35.3552 18.192 34.8752 18.124 34.4352 17.988C33.9952 17.844 33.6152 17.632 33.2952 17.352C32.9752 17.072 32.7272 16.724 32.5512 16.308C32.3752 15.892 32.2872 15.408 32.2872 14.856C32.2872 14.544 32.3392 14.236 32.4432 13.932C32.5472 13.62 32.7152 13.324 32.9472 13.044C33.1872 12.764 33.4952 12.5 33.8712 12.252C34.2472 12.004 34.7072 11.788 35.2512 11.604C35.8032 11.42 36.4432 11.272 37.1712 11.16C37.8992 11.04 38.7312 10.968 39.6672 10.944V10.224C39.6672 9.4 39.4912 8.792 39.1392 8.4C38.7872 8 38.2792 7.8 37.6152 7.8C37.1352 7.8 36.7352 7.856 36.4152 7.968C36.1032 8.08 35.8272 8.208 35.5872 8.352C35.3472 8.488 35.1272 8.612 34.9272 8.724C34.7352 8.836 34.5192 8.892 34.2792 8.892C34.0712 8.892 33.8952 8.84 33.7512 8.736C33.6072 8.624 33.4912 8.496 33.4032 8.352L32.8752 7.404ZM48.1227 7.2C48.3707 6.952 48.6307 6.724 48.9027 6.516C49.1827 6.3 49.4747 6.12 49.7787 5.976C50.0907 5.824 50.4227 5.708 50.7747 5.628C51.1267 5.54 51.5107 5.496 51.9267 5.496C52.5987 5.496 53.1947 5.612 53.7147 5.844C54.2347 6.068 54.6667 6.388 55.0107 6.804C55.3627 7.212 55.6267 7.704 55.8027 8.28C55.9867 8.848 56.0787 9.476 56.0787 10.164V18H53.1147V10.164C53.1147 9.412 52.9427 8.832 52.5987 8.424C52.2547 8.008 51.7307 7.8 51.0267 7.8C50.5147 7.8 50.0347 7.916 49.5867 8.148C49.1387 8.38 48.7147 8.696 48.3147 9.096V18H45.3507V5.688H47.1627C47.5467 5.688 47.7987 5.868 47.9187 6.228L48.1227 7.2ZM68.5336 11.448L66.4216 5.676C66.3176 5.42 66.2096 5.116 66.0976 4.764C65.9856 4.412 65.8736 4.032 65.7616 3.624C65.6576 4.032 65.5496 4.416 65.4376 4.776C65.3256 5.128 65.2176 5.436 65.1136 5.7L63.0136 11.448H68.5336ZM74.2336 18H71.7376C71.4576 18 71.2296 17.932 71.0536 17.796C70.8776 17.652 70.7456 17.476 70.6576 17.268L69.3616 13.728H62.1736L60.8776 17.268C60.8136 17.452 60.6896 17.62 60.5056 17.772C60.3216 17.924 60.0936 18 59.8216 18H57.3016L64.1296 0.647999H67.4176L74.2336 18ZM87.2317 18H84.2677V7.908H78.5557V14.58C78.5557 14.964 78.6477 15.264 78.8317 15.48C79.0237 15.696 79.2837 15.804 79.6117 15.804C79.7957 15.804 79.9477 15.784 80.0677 15.744C80.1957 15.696 80.3037 15.648 80.3917 15.6C80.4877 15.552 80.5717 15.508 80.6437 15.468C80.7157 15.42 80.7877 15.396 80.8597 15.396C80.9477 15.396 81.0197 15.42 81.0757 15.468C81.1317 15.508 81.1917 15.572 81.2557 15.66L82.1437 17.1C81.7117 17.46 81.2157 17.732 80.6557 17.916C80.0957 18.1 79.5157 18.192 78.9157 18.192C77.8437 18.192 77.0197 17.892 76.4437 17.292C75.8757 16.684 75.5917 15.848 75.5917 14.784V7.908H74.3317C74.1717 7.908 74.0357 7.856 73.9237 7.752C73.8117 7.648 73.7557 7.492 73.7557 7.284V6.108L75.7357 5.772L76.3597 2.424C76.3997 2.264 76.4757 2.14 76.5877 2.052C76.6997 1.964 76.8437 1.92 77.0197 1.92H78.5557V5.796H87.2317V18ZM87.7477 2.052C87.7477 2.308 87.6957 2.552 87.5917 2.784C87.4877 3.008 87.3477 3.204 87.1717 3.372C87.0037 3.54 86.7997 3.676 86.5597 3.78C86.3277 3.876 86.0797 3.924 85.8157 3.924C85.5597 3.924 85.3197 3.876 85.0957 3.78C84.8717 3.676 84.6757 3.54 84.5077 3.372C84.3397 3.204 84.2037 3.008 84.0997 2.784C84.0037 2.552 83.9557 2.308 83.9557 2.052C83.9557 1.788 84.0037 1.544 84.0997 1.32C84.2037 1.088 84.3397 0.888 84.5077 0.719999C84.6757 0.544 84.8717 0.408 85.0957 0.311999C85.3197 0.207999 85.5597 0.155999 85.8157 0.155999C86.0797 0.155999 86.3277 0.207999 86.5597 0.311999C86.7997 0.408 87.0037 0.544 87.1717 0.719999C87.3477 0.888 87.4877 1.088 87.5917 1.32C87.6957 1.544 87.7477 1.788 87.7477 2.052ZM96.761 12.744C95.905 12.784 95.185 12.86 94.601 12.972C94.017 13.076 93.549 13.212 93.197 13.38C92.845 13.548 92.593 13.744 92.441 13.968C92.289 14.192 92.213 14.436 92.213 14.7C92.213 15.22 92.365 15.592 92.669 15.816C92.981 16.04 93.385 16.152 93.881 16.152C94.489 16.152 95.013 16.044 95.453 15.828C95.901 15.604 96.337 15.268 96.761 14.82V12.744ZM89.969 7.404C91.385 6.108 93.089 5.46 95.081 5.46C95.801 5.46 96.445 5.58 97.013 5.82C97.581 6.052 98.061 6.38 98.453 6.804C98.845 7.22 99.141 7.72 99.341 8.304C99.549 8.888 99.653 9.528 99.653 10.224V18H98.309C98.029 18 97.813 17.96 97.661 17.88C97.509 17.792 97.389 17.62 97.301 17.364L97.037 16.476C96.725 16.756 96.421 17.004 96.125 17.22C95.829 17.428 95.521 17.604 95.201 17.748C94.881 17.892 94.537 18 94.169 18.072C93.809 18.152 93.409 18.192 92.969 18.192C92.449 18.192 91.969 18.124 91.529 17.988C91.089 17.844 90.709 17.632 90.389 17.352C90.069 17.072 89.821 16.724 89.645 16.308C89.469 15.892 89.381 15.408 89.381 14.856C89.381 14.544 89.433 14.236 89.537 13.932C89.641 13.62 89.809 13.324 90.041 13.044C90.281 12.764 90.589 12.5 90.965 12.252C91.341 12.004 91.801 11.788 92.345 11.604C92.897 11.42 93.537 11.272 94.265 11.16C94.993 11.04 95.825 10.968 96.761 10.944V10.224C96.761 9.4 96.585 8.792 96.233 8.4C95.881 8 95.373 7.8 94.709 7.8C94.229 7.8 93.829 7.856 93.509 7.968C93.197 8.08 92.921 8.208 92.681 8.352C92.441 8.488 92.221 8.612 92.021 8.724C91.829 8.836 91.613 8.892 91.373 8.892C91.165 8.892 90.989 8.84 90.845 8.736C90.701 8.624 90.585 8.496 90.497 8.352L89.969 7.404ZM109.956 8.088C109.876 8.216 109.792 8.308 109.704 8.364C109.616 8.412 109.504 8.436 109.368 8.436C109.224 8.436 109.068 8.396 108.9 8.316C108.74 8.236 108.552 8.148 108.336 8.052C108.12 7.948 107.872 7.856 107.592 7.776C107.32 7.696 106.996 7.656 106.62 7.656C106.036 7.656 105.576 7.78 105.24 8.028C104.912 8.276 104.748 8.6 104.748 9C104.748 9.264 104.832 9.488 105 9.672C105.176 9.848 105.404 10.004 105.684 10.14C105.972 10.276 106.296 10.4 106.656 10.512C107.016 10.616 107.38 10.732 107.748 10.86C108.124 10.988 108.492 11.136 108.852 11.304C109.212 11.464 109.532 11.672 109.812 11.928C110.1 12.176 110.328 12.476 110.496 12.828C110.672 13.18 110.76 13.604 110.76 14.1C110.76 14.692 110.652 15.24 110.436 15.744C110.228 16.24 109.916 16.672 109.5 17.04C109.084 17.4 108.568 17.684 107.952 17.892C107.344 18.092 106.64 18.192 105.84 18.192C105.416 18.192 105 18.152 104.592 18.072C104.192 18 103.804 17.896 103.428 17.76C103.06 17.624 102.716 17.464 102.396 17.28C102.084 17.096 101.808 16.896 101.568 16.68L102.252 15.552C102.34 15.416 102.444 15.312 102.564 15.24C102.684 15.168 102.836 15.132 103.02 15.132C103.204 15.132 103.376 15.184 103.536 15.288C103.704 15.392 103.896 15.504 104.112 15.624C104.328 15.744 104.58 15.856 104.868 15.96C105.164 16.064 105.536 16.116 105.984 16.116C106.336 16.116 106.636 16.076 106.884 15.996C107.14 15.908 107.348 15.796 107.508 15.66C107.676 15.524 107.796 15.368 107.868 15.192C107.948 15.008 107.988 14.82 107.988 14.628C107.988 14.34 107.9 14.104 107.724 13.92C107.556 13.736 107.328 13.576 107.04 13.44C106.76 13.304 106.436 13.184 106.068 13.08C105.708 12.968 105.336 12.848 104.952 12.72C104.576 12.592 104.204 12.444 103.836 12.276C103.476 12.1 103.152 11.88 102.864 11.616C102.584 11.352 102.356 11.028 102.18 10.644C102.012 10.26 101.928 9.796 101.928 9.252C101.928 8.748 102.028 8.268 102.228 7.812C102.428 7.356 102.72 6.96 103.104 6.624C103.496 6.28 103.98 6.008 104.556 5.808C105.14 5.6 105.812 5.496 106.572 5.496C107.42 5.496 108.192 5.636 108.888 5.916C109.584 6.196 110.164 6.564 110.628 7.02L109.956 8.088Z" fill="#F3F4F6"/>
</svg>
