<svg xmlns="http://www.w3.org/2000/svg" xmlns:xlink="http://www.w3.org/1999/xlink">
  <defs>
    <symbol viewBox="-5 -4 32 32" id="icon-stackoverflow">
      <path d="M15 21h-10v-2h10v2zm6-11.665l-1.621-9.335-1.993.346 1.62 9.335 1.994-.346zm-5.964 6.937l-9.746-.975-.186 2.016 9.755.879.177-1.92zm.538-2.587l-9.276-2.608-.526 1.954 9.306 2.5.496-1.846zm1.204-2.413l-8.297-4.864-1.029 1.743 8.298 4.865 1.028-1.744zm1.866-1.467l-5.339-7.829-1.672 1.14 5.339 7.829 1.672-1.14zm-2.644 4.195v8h-12v-8h-2v10h16v-10h-2z" />
    </symbol>

    <symbol viewBox="0 0 32 32" id="icon-github">
      <path d="M 16 4 C 9.371094 4 4 9.371094 4 16 C 4 21.300781 7.4375 25.800781 12.207031 27.386719 C 12.808594 27.496094 13.027344 27.128906 13.027344 26.808594 C 13.027344 26.523438 13.015625 25.769531 13.011719 24.769531 C 9.671875 25.492188 8.96875 23.160156 8.96875 23.160156 C 8.421875 21.773438 7.636719 21.402344 7.636719 21.402344 C 6.546875 20.660156 7.71875 20.675781 7.71875 20.675781 C 8.921875 20.761719 9.554688 21.910156 9.554688 21.910156 C 10.625 23.746094 12.363281 23.214844 13.046875 22.910156 C 13.15625 22.132813 13.46875 21.605469 13.808594 21.304688 C 11.144531 21.003906 8.34375 19.972656 8.34375 15.375 C 8.34375 14.0625 8.8125 12.992188 9.578125 12.152344 C 9.457031 11.851563 9.042969 10.628906 9.695313 8.976563 C 9.695313 8.976563 10.703125 8.65625 12.996094 10.207031 C 13.953125 9.941406 14.980469 9.808594 16 9.804688 C 17.019531 9.808594 18.046875 9.941406 19.003906 10.207031 C 21.296875 8.65625 22.300781 8.976563 22.300781 8.976563 C 22.957031 10.628906 22.546875 11.851563 22.421875 12.152344 C 23.191406 12.992188 23.652344 14.0625 23.652344 15.375 C 23.652344 19.984375 20.847656 20.996094 18.175781 21.296875 C 18.605469 21.664063 18.988281 22.398438 18.988281 23.515625 C 18.988281 25.121094 18.976563 26.414063 18.976563 26.808594 C 18.976563 27.128906 19.191406 27.503906 19.800781 27.386719 C 24.566406 25.796875 28 21.300781 28 16 C 28 9.371094 22.628906 4 16 4 Z" />
    </symbol>

    <symbol viewBox="0 0 32 32" id="icon-linkedin">
      <path d="M 8.6425781 4 C 7.1835781 4 6 5.181625 6 6.640625 C 6 8.099625 7.182625 9.3085938 8.640625 9.3085938 C 10.098625 9.3085938 11.283203 8.099625 11.283203 6.640625 C 11.283203 5.182625 10.101578 4 8.6425781 4 z M 21.535156 11 C 19.316156 11 18.0465 12.160453 17.4375 13.314453 L 17.373047 13.314453 L 17.373047 11.310547 L 13 11.310547 L 13 26 L 17.556641 26 L 17.556641 18.728516 C 17.556641 16.812516 17.701266 14.960938 20.072266 14.960938 C 22.409266 14.960937 22.443359 17.145609 22.443359 18.849609 L 22.443359 26 L 26.994141 26 L 27 26 L 27 17.931641 C 27 13.983641 26.151156 11 21.535156 11 z M 6.3632812 11.310547 L 6.3632812 26 L 10.923828 26 L 10.923828 11.310547 L 6.3632812 11.310547 z" />
    </symbol>

    <symbol viewBox="0 0 48 48" id="icon-instagram">
      <path d="M 16.5 5 C 10.16639 5 5 10.16639 5 16.5 L 5 31.5 C 5 37.832757 10.166209 43 16.5 43 L 31.5 43 C 37.832938 43 43 37.832938 43 31.5 L 43 16.5 C 43 10.166209 37.832757 5 31.5 5 L 16.5 5 z M 16.5 8 L 31.5 8 C 36.211243 8 40 11.787791 40 16.5 L 40 31.5 C 40 36.211062 36.211062 40 31.5 40 L 16.5 40 C 11.787791 40 8 36.211243 8 31.5 L 8 16.5 C 8 11.78761 11.78761 8 16.5 8 z M 34 12 C 32.895 12 32 12.895 32 14 C 32 15.105 32.895 16 34 16 C 35.105 16 36 15.105 36 14 C 36 12.895 35.105 12 34 12 z M 24 14 C 18.495178 14 14 18.495178 14 24 C 14 29.504822 18.495178 34 24 34 C 29.504822 34 34 29.504822 34 24 C 34 18.495178 29.504822 14 24 14 z M 24 17 C 27.883178 17 31 20.116822 31 24 C 31 27.883178 27.883178 31 24 31 C 20.116822 31 17 27.883178 17 24 C 17 20.116822 20.116822 17 24 17 z"/>
    </symbol>

    <symbol viewBox="0 0 576 512" id="icon-eye">
      <path d="M572.52 241.4C518.29 135.59 410.93 64 288 64S57.68 135.64 3.48 241.41a32.35 32.35 0 0 0 0 29.19C57.71 376.41 165.07 448 288 448s230.32-71.64 284.52-177.41a32.35 32.35 0 0 0 0-29.19zM288 400a144 144 0 1 1 144-144 143.93 143.93 0 0 1-144 144zm0-240a95.31 95.31 0 0 0-25.31 3.79 47.85 47.85 0 0 1-66.9 66.9A95.78 95.78 0 1 0 288 160z"/>
    </symbol>

    <symbol viewBox="0 0 512 512" id="icon-moon">
      <path d="M283.211 512c78.962 0 151.079-35.925 198.857-94.792 7.068-8.708-.639-21.43-11.562-19.35-124.203 23.654-238.262-71.576-238.262-196.954 0-72.222 38.662-138.635 101.498-174.394 9.686-5.512 7.25-20.197-3.756-22.23A258.156 258.156 0 0 0 283.211 0c-141.309 0-256 114.511-256 256 0 141.309 114.511 256 256 256z" />
    </symbol>

    <symbol viewBox="0 0 512 512" id="icon-sun">
      <path d="M256 160c-52.9 0-96 43.1-96 96s43.1 96 96 96 96-43.1 96-96-43.1-96-96-96zm246.4 80.5l-94.7-47.3 33.5-100.4c4.5-13.6-8.4-26.5-21.9-21.9l-100.4 33.5-47.4-94.8c-6.4-12.8-24.6-12.8-31 0l-47.3 94.7L92.7 70.8c-13.6-4.5-26.5 8.4-21.9 21.9l33.5 100.4-94.7 47.4c-12.8 6.4-12.8 24.6 0 31l94.7 47.3-33.5 100.5c-4.5 13.6 8.4 26.5 21.9 21.9l100.4-33.5 47.3 94.7c6.4 12.8 24.6 12.8 31 0l47.3-94.7 100.4 33.5c13.6 4.5 26.5-8.4 21.9-21.9l-33.5-100.4 94.7-47.3c13-6.5 13-24.7.2-31.1zm-155.9 106c-49.9 49.9-131.1 49.9-181 0-49.9-49.9-49.9-131.1 0-181 49.9-49.9 131.1-49.9 181 0 49.9 49.9 49.9 131.1 0 181z" />
    </symbol>
  </defs>
</svg>

